Fungal-Grow 500 Thickness 0.ufo
<glyph name="O" format="1">
  <advance width="1612"/>
  <unicode hex="004F"/>
  <outline>
    <contour>
      <point x="807" y="1356" type="curve"/>
      <point x="807" y="1356" type="line"/>
      <point x="513.667" y="1356"/>
      <point x="328" y="1122.333"/>
      <point x="328" y="745" type="curve" smooth="yes"/>
      <point x="328" y="369"/>
      <point x="513.667" y="135"/>
      <point x="807" y="135" type="curve" smooth="yes"/>
      <point x="1100.333" y="135"/>
      <point x="1284" y="369"/>
      <point x="1284" y="745" type="curve" smooth="yes"/>
      <point x="1284" y="1122.333"/>
      <point x="1100.333" y="1356"/>
    </contour>
    <contour>
      <point x="807" y="1520" type="curve"/>
      <point x="807" y="1520" type="line"/>
      <point x="1225.667" y="1520"/>
      <point x="1497" y="1217"/>
      <point x="1497" y="745" type="curve" smooth="yes"/>
      <point x="1497" y="274.333"/>
      <point x="1225.667" y="-29"/>
      <point x="807" y="-29" type="curve" smooth="yes"/>
      <point x="387" y="-29"/>
      <point x="115" y="273"/>
      <point x="115" y="745" type="curve" smooth="yes"/>
      <point x="115" y="1217"/>
      <point x="387" y="1520"/>
    </contour>
    <component base="blob1" xScale="1.2886" yScale="1.2886" xOffset="57" yOffset="225"/>
    <component base="blob2" xOffset="-413" yOffset="-60"/>
    <component base="blob3" xScale="0.6783" yScale="0.6783" xOffset="-805" yOffset="-37"/>
    <component base="blob4" xScale="0.6152" yScale="0.6152" xOffset="-1086" yOffset="-148"/>
    <component base="blob5" xScale="0.8138" yScale="0.8138" xOffset="-1319" yOffset="-357"/>
    <component base="blob6" xScale="1.1539" yScale="1.1539" xOffset="-1702" yOffset="-606"/>
    <component base="blob7" xScale="0.5898" yScale="0.5898" xOffset="-2036" yOffset="-712"/>
    <component base="blob8" xScale="0.7047" yScale="0.7047" xOffset="-2278" yOffset="-666"/>
    <component base="blob9" xScale="0.4869" yScale="0.4869" xOffset="-2509" yOffset="-783"/>
    <component base="blob2" xOffset="277" yOffset="645"/>
    <component base="blob3" xScale="0.6783" yScale="0.6783" xOffset="412" yOffset="987"/>
    <component base="blob4" xScale="0.6152" yScale="0.6152" xOffset="621" yOffset="1068"/>
    <component base="blob5" xScale="0.8138" yScale="0.8138" xOffset="746" yOffset="1283"/>
    <component base="blob6" xScale="0.8529" yScale="0.8529" xOffset="1068" yOffset="1153"/>
    <component base="blob7" xScale="0.5898" yScale="0.5898" xOffset="1225" yOffset="854"/>
    <component base="blob8" xScale="0.7047" yScale="0.7047" xOffset="1028" yOffset="846"/>
    <component base="blob9" xScale="0.4869" yScale="0.4869" xOffset="893" yOffset="637"/>
    <contour>
      <point x="807" y="1520" type="move" name="above"/>
    </contour>
    <contour>
      <point x="807" y="0" type="move" name="below"/>
    </contour>
    <contour>
      <point x="807" y="0" type="move" name="cedilla"/>
    </contour>
    <contour>
      <point x="0" y="1520" type="move" name="half"/>
    </contour>
    <contour>
      <point x="808" y="0" type="move" name="ogonek"/>
    </contour>
  </outline>
</glyph>
<glyph name="Y" format="1">
  <advance width="1251"/>
  <unicode hex="0059"/>
  <outline>
    <contour>
      <point x="-4" y="1493" type="line"/>
      <point x="213" y="1493" type="line"/>
      <point x="627" y="879" type="line"/>
      <point x="1038" y="1493" type="line"/>
      <point x="1255" y="1493" type="line"/>
      <point x="727" y="711" type="line"/>
      <point x="727" y="0" type="line"/>
      <point x="524" y="0" type="line"/>
      <point x="524" y="711" type="line"/>
      <point x="-4" y="1493" type="line"/>
    </contour>
    <component base="blob1" xScale="0" xyScale="1.2886" yScale="0" yxScale="1.2886" xOffset="684" yOffset="-263"/>
    <component base="blob2" xScale="0" xyScale="1" yScale="0" yxScale="1" xOffset="667" yOffset="-835"/>
    <component base="blob3" xScale="0" xyScale="1" yScale="0" yxScale="1" xOffset="465" yOffset="-1260"/>
    <component base="blob4" xScale="0" xyScale="0.8783" yScale="0" yxScale="0.8783" xOffset="425" yOffset="-1718"/>
    <component base="blob5" xScale="0" xyScale="1" yScale="0" yxScale="1" xOffset="600" yOffset="-2169"/>
    <component base="blob6" xScale="0" xyScale="0.861" yScale="0" yxScale="0.861" xOffset="653" yOffset="-2634"/>
    <component base="blob7" xScale="0" xyScale="0.9753" yScale="0" yxScale="0.9753" xOffset="541" yOffset="-3071"/>
    <component base="blob8" xScale="0" xyScale="0.803" yScale="0" yxScale="0.803" xOffset="406" yOffset="-3503"/>
    <component base="blob9" xScale="0" xyScale="0.4869" yScale="0" yxScale="0.4869" xOffset="486" yOffset="-3786"/>
    <component base="blob2" xScale="0" xyScale="1.1184" yScale="0" yxScale="1.1184" xOffset="726" yOffset="336"/>
    <component base="blob3" xScale="0" xyScale="1" yScale="0" yxScale="1" xOffset="413" yOffset="722"/>
    <component base="blob4" xScale="0" xyScale="0.8783" yScale="0" yxScale="0.8783" xOffset="4" yOffset="843"/>
    <component base="blob5" xScale="0" xyScale="0.8916" yScale="0" yxScale="0.8916" xOffset="-287" yOffset="553"/>
    <component base="blob6" xScale="0" xyScale="0.861" yScale="0" yxScale="0.861" xOffset="-629" yOffset="270"/>
    <component base="blob7" xScale="0" xyScale="0.9753" yScale="0" yxScale="0.9753" xOffset="-1043" yOffset="320"/>
    <component base="blob8" xScale="0" xyScale="0.803" yScale="0" yxScale="0.803" xOffset="-1199" yOffset="717"/>
    <component base="blob9" xScale="0" xyScale="0.4869" yScale="0" yxScale="0.4869" xOffset="-1484" yOffset="909"/>
    <contour>
      <point x="626" y="1520" type="move" name="above"/>
    </contour>
    <contour>
      <point x="626" y="0" type="move" name="below"/>
    </contour>
    <contour>
      <point x="0" y="1520" type="move" name="half"/>
    </contour>
    <contour>
      <point x="668" y="0" type="move" name="ogonek"/>
    </contour>
  </outline>
</glyph>
<glyph name="uni01AC" format="1">
  <advance width="1251"/>
  <unicode hex="01AC"/>
  <outline>
    <contour>
      <point x="430" y="1493" type="qcurve" smooth="yes"/>
      <point x="1257" y="1493" type="line"/>
      <point x="1257" y="1323" type="line"/>
      <point x="727" y="1323" type="line"/>
      <point x="727" y="0" type="line"/>
      <point x="524" y="0" type="line"/>
      <point x="524" y="1323" type="line"/>
      <point x="430" y="1323" type="line" smooth="yes"/>
      <point x="298.041" y="1323"/>
      <point x="180" y="1232.99"/>
      <point x="180" y="1128" type="qcurve" smooth="yes"/>
      <point x="180" y="1079" type="line"/>
      <point x="24" y="1079" type="line"/>
      <point x="24" y="1149" type="line" smooth="yes"/>
      <point x="24" y="1330.01"/>
      <point x="216.008" y="1493"/>
    </contour>
    <contour>
      <point x="627" y="1520" type="move" name="above"/>
    </contour>
  </outline>
</glyph>
<glyph name="uni0208" format="1">
  <advance width="604"/>
  <unicode hex="0208"/>
  <outline>
    <component base="I"/>
    <component base="Doublegrave" xOffset="857" yOffset="378"/>
    <contour>
      <point x="303" y="0" type="move" name="below"/>
    </contour>
    <contour>
      <point x="303" y="0" type="move" name="cedilla"/>
    </contour>
  </outline>
</glyph>
<glyph name="uni0305" format="1">
  <advance width="0"/>
  <unicode hex="0305"/>
  <outline>
    <component base="uni203E" xOffset="-1024"/>
    <contour>
      <point x="-512" y="1147" type="move" name="_above"/>
    </contour>
    <contour>
      <point x="-512" y="1282" type="move" name="_above-mark"/>
    </contour>
    <contour>
      <point x="-512" y="1556" type="move" name="above-mark"/>
    </contour>
  </outline>
</glyph>
<glyph name="uni0329" format="1">
  <advance width="0"/>
  <unicode hex="0329"/>
  <outline>
    <contour>
      <point x="-444" y="-96" type="line"/>
      <point x="-444" y="-492" type="line"/>
      <point x="-580" y="-492" type="line"/>
      <point x="-580" y="-96" type="line"/>
    </contour>
    <contour>
      <point x="-512" y="-1" type="move" name="_Ligature below"/>
    </contour>
    <contour>
      <point x="-512" y="-1" type="move" name="_below"/>
    </contour>
    <contour>
      <point x="-512" y="0" type="move" name="_below-mark"/>
    </contour>
    <contour>
      <point x="-512" y="-491" type="move" name="below-mark"/>
    </contour>
  </outline>
</glyph>
<glyph name="omicron" format="1">
  <advance width="1253"/>
  <unicode hex="03BF"/>
  <outline>
    <component base="o"/>
    <contour>
      <point x="637" y="1147" type="move" name="above"/>
    </contour>
  </outline>
</glyph>
<glyph name="uni0406" format="1">
  <advance width="604"/>
  <unicode hex="0406"/>
  <outline>
    <component base="I"/>
    <contour>
      <point x="303" y="1520" type="move" name="above"/>
    </contour>
    <contour>
      <point x="303" y="0" type="move" name="below"/>
    </contour>
  </outline>
</glyph>
<glyph name="uni0422" format="1">
  <advance width="1251"/>
  <unicode hex="0422"/>
  <outline>
    <component base="T"/>
    <contour>
      <point x="627" y="1520" type="move" name="above"/>
    </contour>
  </outline>
</glyph>
<glyph name="uni0632" format="1">
  <advance width="989"/>
  <unicode hex="0632"/>
  <outline>
    <component base="uni0631"/>
    <component base="arabic_dot" xOffset="625" yOffset="800"/>
    <contour>
      <point x="700" y="1000" type="move" name="rtl-above"/>
    </contour>
    <contour>
      <point x="500" y="-500" type="move" name="rtl-below"/>
    </contour>
  </outline>
</glyph>
<glyph name="uni06A6" format="1">
  <advance width="2123"/>
  <unicode hex="06A6"/>
  <outline>
    <component base="uni06A1"/>
    <component base="arabic_4dots" xOffset="1400" yOffset="1400"/>
    <contour>
      <point x="700" y="1100" type="move" name="rtl-above"/>
    </contour>
    <contour>
      <point x="800" y="-200" type="move" name="rtl-below"/>
    </contour>
  </outline>
</glyph>
<glyph name="uni07F2" format="1">
  <advance width="0"/>
  <unicode hex="07F2"/>
  <outline>
    <contour>
      <point x="410" y="-173" type="line"/>
      <point x="614" y="-173" type="line"/>
      <point x="614" y="-377" type="line"/>
      <point x="410" y="-377" type="line"/>
    </contour>
    <contour>
      <point x="512" y="-1" type="move" name="_rtl-below"/>
    </contour>
  </outline>
</glyph>
<glyph name="uni07F3" format="1">
  <advance width="0"/>
  <unicode hex="07F3"/>
  <outline>
    <contour>
      <point x="604" y="1552" type="line"/>
      <point x="807" y="1552" type="line"/>
      <point x="807" y="1350" type="line"/>
      <point x="604" y="1350" type="line"/>
    </contour>
    <contour>
      <point x="213" y="1552" type="line"/>
      <point x="416" y="1552" type="line"/>
      <point x="416" y="1350" type="line"/>
      <point x="213" y="1350" type="line"/>
    </contour>
    <contour>
      <point x="512" y="1147" type="move" name="_rtl-above"/>
    </contour>
  </outline>
</glyph>
<glyph name="uni1D0D" format="1">
  <advance width="1545"/>
  <unicode hex="1D0D"/>
  <outline>
    <component base="uni043C"/>
    <contour>
      <point x="773" y="1147" type="move" name="above"/>
    </contour>
    <contour>
      <point x="773" y="0" type="move" name="below"/>
    </contour>
  </outline>
</glyph>
<glyph name="uni213E" format="1">
  <advance width="1340"/>
  <unicode hex="213E"/>
  <outline>
    <contour>
      <point x="300" y="1393" type="line"/>
      <point x="300" y="100" type="line"/>
      <point x="502" y="100" type="line"/>
      <point x="502" y="1393" type="line"/>
    </contour>
    <contour>
      <point x="1328" y="1493" type="line"/>
      <point x="1328" y="1393" type="line"/>
      <point x="602" y="1393" type="line"/>
      <point x="602" y="0" type="line"/>
      <point x="200" y="0" type="line"/>
      <point x="200" y="1493" type="line"/>
    </contour>
    <contour>
      <point x="764" y="1520" type="move" name="above"/>
    </contour>
    <contour>
      <point x="764" y="0" type="move" name="below"/>
    </contour>
  </outline>
</glyph>
<glyph name="uni213F" format="1">
  <advance width="1738"/>
  <unicode hex="213F"/>
  <outline>
    <contour>
      <point x="1235" y="1393" type="line"/>
      <point x="1235" y="100" type="line"/>
      <point x="1437" y="100" type="line"/>
      <point x="1437" y="1393" type="line"/>
    </contour>
    <contour>
      <point x="301" y="1393" type="line"/>
      <point x="301" y="100" type="line"/>
      <point x="503" y="100" type="line"/>
      <point x="503" y="1393" type="line"/>
    </contour>
    <contour>
      <point x="1537" y="0" type="line"/>
      <point x="1135" y="0" type="line"/>
      <point x="1135" y="1393" type="line"/>
      <point x="603" y="1393" type="line"/>
      <point x="603" y="0" type="line"/>
      <point x="201" y="0" type="line"/>
      <point x="201" y="1493" type="line"/>
      <point x="1537" y="1493" type="line"/>
    </contour>
    <contour>
      <point x="869" y="1520" type="move" name="above"/>
    </contour>
    <contour>
      <point x="869" y="0" type="move" name="below"/>
    </contour>
  </outline>
</glyph>
<glyph name="uniFB1D" format="1">
  <advance width="458"/>
  <unicode hex="FB1D"/>
  <outline>
    <component base="uni05D9"/>
    <component base="uni05B4" xOffset="-434" yOffset="416"/>
    <contour>
      <point x="80" y="795" type="move" name="rtl-inside"/>
    </contour>
  </outline>
</glyph>
<glyph name="uniFB66" format="1">
  <advance width="1928"/>
  <unicode hex="FB66"/>
  <outline>
    <component base="uni0615" xOffset="388" yOffset="-600"/>
    <component base="uni066E"/>
    <contour>
      <point x="900" y="1250" type="move" name="rtl-above"/>
    </contour>
    <contour>
      <point x="900" y="-150" type="move" name="rtl-below"/>
    </contour>
  </outline>
</glyph>
<glyph name="uniFB90" format="1">
  <advance width="975"/>
  <unicode hex="FB90"/>
  <outline>
    <component base="uniFEDB"/>
    <contour>
      <point x="250" y="1550" type="move" name="rtl-above"/>
    </contour>
    <contour>
      <point x="300" y="-150" type="move" name="rtl-below"/>
    </contour>
  </outline>
</glyph>
<glyph name="uniFB95" format="1">
  <advance width="1131"/>
  <unicode hex="FB95"/>
  <outline>
    <component base="uniFB91"/>
    <component base="arabic_gaf_bar" xOffset="112"/>
    <contour>
      <point x="250" y="1700" type="move" name="rtl-above"/>
    </contour>
    <contour>
      <point x="300" y="-150" type="move" name="rtl-below"/>
    </contour>
  </outline>
</glyph>
<glyph name="uniFBA0" format="1">
  <advance width="1504"/>
  <unicode hex="FBA0"/>
  <outline>
    <component base="uni0615" xOffset="200" yOffset="-475"/>
    <component base="uni06BA"/>
    <contour>
      <point x="700" y="1375" type="move" name="rtl-above"/>
    </contour>
    <contour>
      <point x="750" y="-450" type="move" name="rtl-below"/>
    </contour>
  </outline>
</glyph>
<glyph name="uniFBD6" format="1">
  <advance width="1131"/>
  <unicode hex="FBD6"/>
  <outline>
    <component base="uniFEDC"/>
    <component base="arabic_3dots" xOffset="75" yOffset="1500"/>
    <contour>
      <point x="275" y="1950" type="move" name="rtl-above"/>
    </contour>
    <contour>
      <point x="300" y="-150" type="move" name="rtl-below"/>
    </contour>
  </outline>
</glyph>
<glyph name="uniFE70" format="1">
  <advance width="600"/>
  <unicode hex="FE70"/>
  <outline>
    <component base="uni064B" xOffset="-212"/>
    <contour>
      <point x="300" y="1700" type="move" name="rtl-above"/>
    </contour>
    <contour>
      <point x="300" y="-100" type="move" name="rtl-below"/>
    </contour>
  </outline>
</glyph>
<glyph name="uniFE81" format="1">
  <advance width="569"/>
  <unicode hex="FE81"/>
  <outline>
    <component base="uni0653" xOffset="-227" yOffset="450"/>
    <component base="uni0627"/>
    <contour>
      <point x="285" y="2000" type="move" name="rtl-above"/>
    </contour>
    <contour>
      <point x="285" y="-100" type="move" name="rtl-below"/>
    </contour>
  </outline>
</glyph>
<glyph name="uniFE9D" format="1">
  <advance width="1322"/>
  <unicode hex="FE9D"/>
  <outline>
    <component base="arabic_dot" xOffset="775" yOffset="25"/>
    <component base="uni062D"/>
    <contour>
      <point x="650" y="1000" type="move" name="rtl-above"/>
    </contour>
    <contour>
      <point x="812" y="-600" type="move" name="rtl-below"/>
    </contour>
  </outline>
</glyph>
<glyph name="uniFEB8" format="1">
  <advance width="1827"/>
  <unicode hex="FEB8"/>
  <outline>
    <component base="uniFEB4"/>
    <component base="arabic_3dots" xOffset="650" yOffset="800"/>
    <contour>
      <point x="850" y="1250" type="move" name="rtl-above"/>
    </contour>
    <contour>
      <point x="650" y="-150" type="move" name="rtl-below"/>
    </contour>
  </outline>
</glyph>
<glyph name="uniFED1" format="1">
  <advance width="2123"/>
  <unicode hex="FED1"/>
  <outline>
    <component base="arabic_dot" xOffset="1525" yOffset="1150"/>
    <component base="uni06A1"/>
    <contour>
      <point x="700" y="1100" type="move" name="rtl-above"/>
    </contour>
    <contour>
      <point x="800" y="-200" type="move" name="rtl-below"/>
    </contour>
  </outline>
</glyph>
<glyph name="uniFEE1" format="1">
  <advance width="1268"/>
  <unicode hex="FEE1"/>
  <outline>
    <component base="uni0645"/>
    <contour>
      <point x="650" y="950" type="move" name="rtl-above"/>
    </contour>
    <contour>
      <point x="240" y="-600" type="move" name="rtl-below"/>
    </contour>
  </outline>
</glyph>
<glyph name="uni0697.fina" format="1">
  <advance width="1130"/>
  <outline>
    <component base="arabic_2dots" xOffset="500" yOffset="800"/>
    <component base="uniFEAE"/>
    <contour>
      <point x="700" y="1000" type="move" name="rtl-above"/>
    </contour>
    <contour>
      <point x="500" y="-500" type="move" name="rtl-below"/>
    </contour>
  </outline>
</glyph>
<glyph name="uni069A.fina" format="1">
  <advance width="2611"/>
  <outline>
    <component base="uniFEB2"/>
    <component base="arabic_dot" xOffset="1375" yOffset="800"/>
    <component base="arabic_dot" xOffset="1525" yOffset="-350"/>
    <contour>
      <point x="600" y="800" type="move" name="rtl-above"/>
    </contour>
    <contour>
      <point x="600" y="-600" type="move" name="rtl-below"/>
    </contour>
  </outline>
</glyph>
<glyph name="uni069B.init" format="1">
  <advance width="1716"/>
  <outline>
    <component base="uniFEB3"/>
    <component base="arabic_3dots_a" xOffset="800" yOffset="-250"/>
    <contour>
      <point x="650" y="900" type="move" name="rtl-above"/>
    </contour>
    <contour>
      <point x="1000" y="-550" type="move" name="rtl-below"/>
    </contour>
  </outline>
</glyph>
<glyph name="uni07E1.fina" format="1">
  <advance width="1280"/>
  <outline>
    <contour>
      <point x="966" y="147" type="line"/>
      <point x="640" y="1301" type="line"/>
      <point x="314" y="147" type="line"/>
    </contour>
    <contour>
      <point x="61" y="0" type="line"/>
      <point x="525" y="1493" type="line"/>
      <point x="755" y="1493" type="line"/>
      <point x="1163" y="147" type="line"/>
      <point x="1300" y="147" type="line"/>
      <point x="1300" y="0" type="line"/>
    </contour>
    <contour>
      <point x="640" y="1522" type="move" name="rtl-above"/>
    </contour>
    <contour>
      <point x="640" y="0" type="move" name="rtl-below"/>
    </contour>
  </outline>
</glyph>
<glyph name="uni1ECB.dotless" format="1">
  <advance width="569"/>
  <outline>
    <component base="dotlessi"/>
    <component base="dotbelowcomb" xOffset="799" yOffset="1"/>
    <contour>
      <point x="287" y="1147" type="move" name="above"/>
    </contour>
  </outline>
</glyph>
